# xmcd CD database file
#
# Track frame offsets:
#	150
#	19172
#	32522
#	44252
#	56040
#	68082
#	80777
#	96272
#	117210
#	131115
#	148135
#	165197
#	180975
#	203940
#	222967
#	238025
#	252752
#	267477
#	282590
#	293707
#
# Disc length: 4040 seconds
#
# Revision: 2
# Processed by: cddbd v1.5.2PL0 Copyright (c) Steve Scherf et al.
# Submitted via: CDex 1.51
#
DISCID=2e0fc614
DTITLE=Lambert, Hendricks and Ross - Vol. 127 - Lambert, Hendricks and Ross
DYEAR=1964
DGENRE=Jazz
TTITLE0=Four
TTITLE1=Now's the Time
TTITLE2=Moanin'
TTITLE3=Caravan
TTITLE4=Tickle Toe
TTITLE5=Things Ain't What They Used to Be
TTITLE6=Every Tub
TTITLE7=Li'l Darlin
TTITLE8=Swingin' the Blues
TTITLE9=Love Makes the World Go Around
TTITLE10=Sermonette
TTITLE11=Airegin
TTITLE12=Swin'g 'til the Girls Come Home
TTITLE13=Going to CHicago Blues
TTITLE14=Jumpin' at the Woodside
TTITLE15=Babe's Blues
TTITLE16=Let Me See
TTITLE17=Charleston Alley
TTITLE18=Centerpiece
TTITLE19=Jackie
EXTD=YEAR: 1964
EXTT0=
EXTT1=
EXTT2=
EXTT3=
EXTT4=
EXTT5=
EXTT6=
EXTT7=
EXTT8=
EXTT9=
EXTT10=
EXTT11=
EXTT12=
EXTT13=
EXTT14=
EXTT15=
EXTT16=
EXTT17=
EXTT18=
EXTT19=
PLAYORDER=
